<?xml version="1.0" encoding="UTF-8"?>
<svg width="32px" height="32px" viewBox="0 0 32 32" version="1.1" xmlns="http://www.w3.org/2000/svg" xmlns:xlink="http://www.w3.org/1999/xlink">
    <!-- Generator: Sketch 50.2 (55047) - http://www.bohemiancoding.com/sketch -->
    <title>Setting</title>
    <desc>Created with Sketch.</desc>
    <defs></defs>
    <g id="Setting" stroke="none" stroke-width="1" fill="none" fill-rule="evenodd">
        <path d="M1.00933333,19.7664233 C0.416,19.6184233 0,19.08509 0,18.47309 L0,12.5557566 C0,11.9437566 0.416,11.4104233 1.00933333,11.2624233 L2.27333333,10.9464233 C3.296,10.6904233 4.17066667,10.0317566 4.69466667,9.11842331 C4.724,9.06508998 4.75466667,9.01308998 4.78533333,8.96108998 C5.33066667,8.04108998 5.47466667,6.94108998 5.18133333,5.91308998 L4.82266667,4.65842331 C4.65333333,4.07042331 4.908,3.44375665 5.43733333,3.13708998 L10.5626667,0.178423316 C11.092,-0.126910017 11.7626667,-0.033576684 12.188,0.406423316 L13.1386667,1.39042331 C13.8826667,2.15975665 14.9093333,2.58508998 15.9786667,2.58375665 L16.0213333,2.58375665 C17.0906667,2.58508998 18.1173333,2.15975665 18.8613333,1.39042331 L19.812,0.406423316 C20.2373333,-0.033576684 20.908,-0.126910017 21.4373333,0.178423316 L26.5626667,3.13708998 C27.092,3.44375665 27.3466667,4.07042331 27.1773333,4.65842331 L26.8186667,5.91308998 C26.5253333,6.94108998 26.6693333,8.04108998 27.2146667,8.96108998 C27.2453333,9.01308998 27.276,9.06508998 27.3053333,9.11842331 C27.8293333,10.0317566 28.704,10.6904233 29.7266667,10.9464233 L30.9906667,11.2624233 C31.584,11.4104233 32,11.9437566 32,12.5557566 L32,18.47309 C32,19.08509 31.584,19.6184233 30.9906667,19.7664233 L29.7266667,20.0824233 C28.704,20.3384233 27.8306667,20.99709 27.3053333,21.9104233 C27.276,21.9637566 27.2453333,22.0157566 27.2146667,22.0677566 C26.6693333,22.9877566 26.5253333,24.0877566 26.8186667,25.1157566 L27.1773333,26.3704233 C27.3466667,26.9584233 27.092,27.58509 26.5626667,27.8917566 L21.4373333,30.8504233 C20.908,31.1557566 20.2373333,31.0624233 19.812,30.6224233 L18.8613333,29.6384233 C18.1173333,28.86909 17.0906667,28.4437566 16.0213333,28.44509 L15.9786667,28.44509 C14.9093333,28.4437566 13.8826667,28.86909 13.1386667,29.6384233 L12.188,30.6224233 C11.7626667,31.0624233 11.092,31.1557566 10.5626667,30.8504233 L5.43733333,27.8917566 C4.908,27.58509 4.65333333,26.9584233 4.82266667,26.3704233 L5.18133333,25.1157566 C5.47466667,24.0877566 5.33066667,22.9877566 4.78533333,22.0677566 C4.75466667,22.0157566 4.724,21.9637566 4.69466667,21.9104233 C4.16933333,20.99709 3.296,20.3384233 2.27333333,20.0824233 L1.00933333,19.7664233 Z M16,11.5144233 C13.7906667,11.5144233 12,13.30509 12,15.5144233 C12,17.7237566 13.7906667,19.5144233 16,19.5144233 C18.2093333,19.5144233 20,17.7237566 20,15.5144233 C20,13.30509 18.2093333,11.5144233 16,11.5144233 Z" id="Combined-Shape" fill="#212121"></path>
    </g>
</svg>