<?xml version="1.0" encoding="UTF-8"?>
<svg width="32px" height="32px" viewBox="0 0 32 32" version="1.1" xmlns="http://www.w3.org/2000/svg" xmlns:xlink="http://www.w3.org/1999/xlink">
    <!-- Generator: Sketch 50.2 (55047) - http://www.bohemiancoding.com/sketch -->
    <title>Target</title>
    <desc>Created with Sketch.</desc>
    <defs></defs>
    <g id="Target" stroke="none" stroke-width="1" fill="none" fill-rule="evenodd">
        <path d="M32,15.9998667 C32,7.16386667 24.836,-0.000133333333 16,-0.000133333333 C7.164,-0.000133333333 0,7.16386667 0,15.9998667 C0,19.6972 1.26533333,23.0918667 3.372,25.7998667 L0.586666667,28.5865333 L3.41466667,31.4145333 L6.2,28.6278667 C8.90933333,30.7345333 12.3026667,31.9998667 16,31.9998667 C19.6973333,31.9998667 23.0906667,30.7345333 25.8,28.6278667 L28.5866667,31.4145333 L31.4146667,28.5865333 L28.628,25.7998667 C30.7333333,23.0905333 32,19.6972 32,15.9998667 Z M21.9906667,24.8185333 C20.2813333,25.9838667 18.22,26.6665333 16,26.6665333 C13.78,26.6665333 11.7186667,25.9838667 10.0093333,24.8185333 C8.89866667,24.0625333 7.93733333,23.1012 7.18133333,21.9905333 C6.016,20.2825333 5.33333333,18.2198667 5.33333333,15.9998667 C5.33333333,10.1185333 10.1186667,5.3332 16,5.3332 C21.8813333,5.3332 26.6666667,10.1185333 26.6666667,15.9998667 C26.6666667,18.2185333 25.984,20.2812 24.8186667,21.9905333 C24.0613333,23.1012 23.1013333,24.0612 21.9906667,24.8185333 Z M15.9997333,10.6662667 C13.0584,10.6662667 10.6664,13.0582667 10.6664,15.9996 C10.6664,16.7382667 10.8184,17.4409333 11.0904,18.0822667 C11.6304,19.3516 12.6490667,20.3702667 13.9184,20.9089333 C14.5584,21.1822667 15.2610667,21.3329333 15.9997333,21.3329333 C16.7384,21.3329333 17.4410667,21.1809333 18.0810667,20.9089333 C19.3504,20.3689333 20.3690667,19.3502667 20.9090667,18.0809333 C21.1810667,17.4409333 21.3330667,16.7382667 21.3330667,15.9996 C21.3330667,13.0582667 18.9410667,10.6662667 15.9997333,10.6662667 Z" id="Combined-Shape" fill="#212121"></path>
    </g>
</svg>