<?xml version="1.0" encoding="UTF-8"?>
<svg width="32px" height="32px" viewBox="0 0 32 32" version="1.1" xmlns="http://www.w3.org/2000/svg" xmlns:xlink="http://www.w3.org/1999/xlink">
    <!-- Generator: Sketch 50.2 (55047) - http://www.bohemiancoding.com/sketch -->
    <title>icons/outline/airplane-32</title>
    <desc>Created with Sketch.</desc>
    <defs></defs>
    <g id="Page-1" stroke="none" stroke-width="1" fill="none" fill-rule="evenodd">
        <g id="icons/outline/airplane-32" fill="#333333" fill-rule="nonzero">
            <path d="M21.5655304,11.9606666 L21.4686338,11.0176183 L27.8743118,4.57967519 C28.3355714,4.11609229 28.8622325,3.38470308 29.2794985,2.65254058 C29.1017092,2.73869487 28.927227,2.83050052 28.7562187,2.92748989 C28.3233869,3.17297561 27.9420153,3.4349256 27.6192321,3.69293606 C27.4396708,3.83646484 27.3297917,3.93592741 27.2959662,3.9699233 L20.8841521,10.4140333 L19.9338246,10.3154046 C18.0103992,10.1157841 16.0713157,9.92022835 14.2014247,9.73914125 C13.0237365,9.6250896 11.9038659,9.51975022 10.8539116,9.42459909 C11.8037838,9.88867296 12.7833124,10.3612267 13.7629622,10.8291785 C14.2770851,11.0747609 14.7544126,11.3014582 15.1825988,11.5038101 C15.43901,11.6249848 15.6216763,11.7109369 15.7182701,11.7562162 L18.292108,12.9627271 L7.06302425,24.248371 L7.58616223,24.3879481 L7.71989614,24.8942479 L18.946711,13.6108843 L20.1546581,16.2138109 C20.1997186,16.3109089 20.2852485,16.4945133 20.4058246,16.7522348 C20.6071733,17.182601 20.8327456,17.6623566 21.077109,18.179094 C21.5339839,19.1452138 21.9952677,20.1112175 22.4486661,21.0490666 C22.2041279,18.3239152 21.8986991,15.2032379 21.5655304,11.9606666 Z M14.8693883,13.5671275 L2.27613154,6.96682532 L20.1402834,8.32608945 L25.8782044,2.5592669 C25.8782044,2.5592669 27.6881454,0.740209345 30.6360428,0.0648400231 C33.5839402,-0.610529298 31.1020146,4.17127404 29.2920736,5.99033159 L23.555056,11.7562462 L24.907716,29.7124037 L18.3404926,17.0557155 L9.33150756,26.1100783 L7.52903597,31.929443 L5.94894623,26.0210893 L0.0702034094,24.4330407 L5.86040325,22.6214902 L14.8693883,13.5671275 Z"></path>
        </g>
    </g>
</svg>