<?xml version="1.0" encoding="UTF-8"?>
<svg width="32px" height="32px" viewBox="0 0 32 32" version="1.1" xmlns="http://www.w3.org/2000/svg" xmlns:xlink="http://www.w3.org/1999/xlink">
    <!-- Generator: Sketch 50.2 (55047) - http://www.bohemiancoding.com/sketch -->
    <title>appkit-icon-bubble-plot-outline</title>
    <desc>Created with Sketch.</desc>
    <defs></defs>
    <g id="Page-2" stroke="none" stroke-width="1" fill="none" fill-rule="evenodd">
        <g id="04-copy-2" transform="translate(-149.000000, -2353.000000)" fill="#333333">
            <g id="appkit-icon-bubble-plot-outline" transform="translate(149.000000, 2353.000000)">
                <path d="M2,32 C0.896,32 0,31.104 0,30 L0,2 C0,0.896 0.896,0 2,0 L30,0 C31.104,0 32,0.896 32,2 L32,30 C32,31.104 31.104,32 30,32 L2,32 Z M2,30 L30,30 L30,2 L2,2 L2,30 Z M22.7146667,16.0216 C25.3933333,15.9162667 27.628,18.0162667 27.7253333,20.6829333 C27.8213333,23.3496 25.7293333,25.5976 23.0626667,25.6949333 C23.004,25.6962667 22.9453333,25.6976 22.8866667,25.6976 C20.2986667,25.6976 18.1466667,23.6402667 18.052,21.0322667 C17.956,18.3656 20.0466667,16.1176 22.7146667,16.0216 Z M22.9906667,23.6962667 C24.5546667,23.6389333 25.7826667,22.3202667 25.7266667,20.7562667 C25.6706667,19.1909333 24.3386667,17.9696 22.7866667,18.0189333 C21.2213333,18.0776 19.9946667,19.3962667 20.0506667,20.9602667 C20.108,22.5256 21.4533333,23.7416 22.9906667,23.6962667 Z M10.5905333,8.9736 C14.2412,8.8696 17.2478667,11.6762667 17.3772,15.2882667 C17.4412,17.0376 16.8198667,18.7069333 15.6265333,19.9896 C14.4345333,21.2709333 12.8132,22.0122667 11.0638667,22.0749333 C10.9838667,22.0776 10.9038667,22.0802667 10.8252,22.0802667 C7.3172,22.0802667 4.40386667,19.2936 4.2772,15.7602667 C4.14653333,12.1496 6.97853333,9.10426667 10.5905333,8.9736 Z M14.1625333,18.6269333 C14.9905333,17.7362667 15.4238667,16.5762667 15.3798667,15.3602667 C15.2878667,12.8509333 13.1345333,10.8802667 10.6625333,10.9722667 C8.1532,11.0629333 6.1852,13.1789333 6.27453333,15.6882667 C6.3652,18.1976 8.49986667,20.1496 10.9918667,20.0776 C12.2078667,20.0336 13.3332,19.5189333 14.1625333,18.6269333 Z M21.9814667,14.1705333 C19.8774667,14.1705333 18.1281333,12.4985333 18.0521333,10.3785333 C18.0134667,9.3292 18.3868,8.32653333 19.1028,7.5572 C19.8188,6.78786667 20.7908,6.34386667 21.8414667,6.3052 C22.9068,6.25586667 23.8948,6.6412 24.6641333,7.35586667 C25.4334667,8.07186667 25.8774667,9.0452 25.9148,10.0958667 C25.9521333,11.1452 25.5801333,12.1478667 24.8641333,12.9172 C24.1481333,13.6865333 23.1748,14.1305333 22.1241333,14.1678667 C22.0761333,14.1705333 22.0281333,14.1705333 21.9814667,14.1705333 Z M20.5668,8.91986667 C20.2148,9.2972 20.0321333,9.79053333 20.0508,10.3065333 C20.0681333,10.8225333 20.2881333,11.3012 20.6668,11.6532 C21.0428,12.0038667 21.5174667,12.1758667 22.0534667,12.1705333 C22.5694667,12.1518667 23.0468,11.9332 23.4001333,11.5545333 C23.7508,11.1772 23.9348,10.6838667 23.9161333,10.1665333 C23.8974667,9.65053333 23.6788,9.1732 23.3014667,8.81986667 C22.9241333,8.4692 22.4668,8.28386667 21.9134667,8.30386667 C21.3974667,8.32253333 20.9188,8.5412 20.5668,8.91986667 Z" id="ic_ol_Bubble-Plot"></path>
            </g>
        </g>
    </g>
</svg>