<?xml version="1.0" encoding="UTF-8"?>
<svg width="32px" height="32px" viewBox="0 0 32 32" version="1.1" xmlns="http://www.w3.org/2000/svg" xmlns:xlink="http://www.w3.org/1999/xlink">
    <!-- Generator: Sketch 50.2 (55047) - http://www.bohemiancoding.com/sketch -->
    <title>calendar-outline</title>
    <desc>Created with Sketch.</desc>
    <defs></defs>
    <g id="Page-2" stroke="none" stroke-width="1" fill="none" fill-rule="evenodd">
        <g id="04-copy-2" transform="translate(-147.000000, -2451.000000)" fill="#333333">
            <g id="calendar-outline" transform="translate(149.000000, 2451.000000)">
                <path d="M28,10 L28,12 L28,30 C28,31.104 27.104,32 26,32 L2,32 C0.896,32 0,31.104 0,30 L0,4 L5,4 L5,0 L7,0 L7,4 L21,4 L21,0 L23,0 L23,4 L28,4 L28,10 Z M2,10 L26,10 L26,6 L2,6 L2,10 Z M2,30 L26,30 L26,12 L2,12 L2,30 Z M21,27 L21,25 L23,25 L23,27 L21,27 Z" id="ic_ol_Calendar"></path>
            </g>
        </g>
    </g>
</svg>