<?xml version="1.0" encoding="UTF-8"?>
<svg width="32px" height="32px" viewBox="0 0 32 32" version="1.1" xmlns="http://www.w3.org/2000/svg" xmlns:xlink="http://www.w3.org/1999/xlink">
    <!-- Generator: Sketch 50.2 (55047) - http://www.bohemiancoding.com/sketch -->
    <title>ic_ol_Circle Minus</title>
    <desc>Created with Sketch.</desc>
    <defs></defs>
    <g id="Page-1" stroke="none" stroke-width="1" fill="none" fill-rule="evenodd">
        <g id="ic_ol_Circle-Minus" fill="#333333">
            <path d="M27.3138,4.6858 C33.5618,10.9338 33.5618,21.0658 27.3138,27.3138 C24.1898,30.4378 20.0958,31.9998 15.9998,31.9998 C11.9058,31.9998 7.8098,30.4378 4.6858,27.3138 C-1.5622,21.0658 -1.5622,10.9338 4.6858,4.6858 C7.8098,1.5618 11.9058,-0.0002 15.9998,-0.0002 C20.0958,-0.0002 24.1898,1.5618 27.3138,4.6858 Z M25.8998,25.8998 C31.3578,20.4418 31.3578,11.5598 25.8998,6.0998 C23.2558,3.4558 19.7398,1.9998 15.9998,1.9998 C12.2598,1.9998 8.7438,3.4558 6.0998,6.0998 C3.4558,8.7438 1.9998,12.2598 1.9998,15.9998 C1.9998,19.7398 3.4558,23.2558 6.0998,25.8998 C8.7438,28.5438 12.2598,29.9998 15.9998,29.9998 C19.7398,29.9998 23.2558,28.5438 25.8998,25.8998 Z M7,17 L7,15 L25,15 L25,17 L7,17 Z"></path>
        </g>
    </g>
</svg>