<?xml version="1.0" encoding="UTF-8"?>
<svg width="32px" height="32px" viewBox="0 0 32 32" version="1.1" xmlns="http://www.w3.org/2000/svg" xmlns:xlink="http://www.w3.org/1999/xlink">
    <!-- Generator: Sketch 50.2 (55047) - http://www.bohemiancoding.com/sketch -->
    <title>doc-outline</title>
    <desc>Created with Sketch.</desc>
    <defs></defs>
    <g id="Page-2" stroke="none" stroke-width="1" fill="none" fill-rule="evenodd">
        <g id="04-copy-2" transform="translate(-394.000000, -2451.000000)" fill="#333333">
            <g id="doc-outline" transform="translate(394.000000, 2455.000000)">
                <path d="M30,0 C31.104,0 32,0.896 32,2 L32,24 L0,24 L0,0 L30,0 Z M2,22 L30,22 L30,2 L2,2 L2,22 Z M5,15.8869776 L5,8.11213712 L7.94659919,8.11213712 C8.8937909,8.11213712 9.68617676,8.41027649 10.3237805,9.00656416 C10.9613843,9.60285184 11.2801814,10.3673346 11.2801814,11.3000353 L11.2801814,12.6990794 C11.2801814,13.63534 10.9613843,14.4007127 10.3237805,14.9952204 C9.68617676,15.5897282 8.8937909,15.8869776 7.94659919,15.8869776 L5,15.8869776 Z M6.86857509,9.50050148 L6.86857509,14.4986132 L7.94659919,14.4986132 C8.37043984,14.4986132 8.71964244,14.3312992 8.99421747,13.9966661 C9.2687925,13.662033 9.40607796,13.2295084 9.40607796,12.6990794 L9.40607796,11.2893556 C9.40607796,10.7660464 9.2687925,10.3370817 8.99421747,10.0024486 C8.71964244,9.66781552 8.37043984,9.50050148 7.94659919,9.50050148 L6.86857509,9.50050148 Z M19.3692319,12.6990794 C19.3692319,13.6566996 19.0550417,14.4461014 18.4266519,15.0673086 C17.798262,15.6885158 16.9773134,15.9991147 15.9637814,15.9991147 C14.9428783,15.9991147 14.1154801,15.6885158 13.4815619,15.0673086 C12.8476437,14.4461014 12.5306893,13.6566996 12.5306893,12.6990794 L12.5306893,11.3000353 C12.5306893,10.345975 12.8467223,9.55746314 13.4787977,8.93447601 C14.1108731,8.31148889 14.9355072,8 15.9527248,8 C16.9625712,8 17.7844412,8.31148889 18.4183594,8.93447601 C19.0522776,9.55746314 19.3692319,10.345975 19.3692319,11.3000353 L19.3692319,12.6990794 Z M17.5061851,11.2893556 C17.5061851,10.734007 17.3707424,10.2783433 17.099853,9.92235066 C16.8289635,9.56635801 16.4465913,9.38836436 15.9527248,9.38836436 C15.4478016,9.38836436 15.0617438,9.56546805 14.7945399,9.91968072 C14.527336,10.2738934 14.3937361,10.7304471 14.3937361,11.2893556 L14.3937361,12.6990794 C14.3937361,13.2615478 14.5291788,13.7207714 14.8000683,14.076764 C15.0709577,14.4327567 15.4588582,14.6107503 15.9637814,14.6107503 C16.4539624,14.6107503 16.8335705,14.4327567 17.1026172,14.076764 C17.3716638,13.7207714 17.5061851,13.2615478 17.5061851,12.6990794 L17.5061851,11.2893556 Z M26.9717895,13.2651049 L26.9828462,13.297144 C26.9975885,14.1835657 26.738681,14.8554917 26.206116,15.3129423 C25.673551,15.7703928 24.9189417,15.9991147 23.9422654,15.9991147 C22.9471613,15.9991147 22.1483258,15.7054251 21.5457349,15.1180373 C20.9431441,14.5306494 20.6418532,13.7617169 20.6418532,12.8112165 L20.6418532,11.1878982 C20.6418532,10.2409577 20.9320875,9.47291514 21.5125649,8.88374732 C22.0930424,8.29457949 22.860551,8 23.8151138,8 C24.836017,8 25.6256387,8.22961181 26.1840027,8.68884232 C26.7423667,9.14807283 27.0141734,9.81554902 26.9994312,10.6912909 L26.9828462,10.7233301 L25.164026,10.7233301 C25.164026,10.2463 25.0589888,9.90455214 24.8489113,9.69807641 C24.6388338,9.49160068 24.2942381,9.38836436 23.8151138,9.38836436 C23.3949588,9.38836436 23.0724761,9.55122855 22.8476563,9.87696182 C22.6228365,10.2026951 22.5104283,10.6361096 22.5104283,11.1772184 L22.5104283,12.8112165 C22.5104283,13.3558852 22.633893,13.7919697 22.8808263,14.1194829 C23.1277595,14.4469962 23.481569,14.6107503 23.9422654,14.6107503 C24.3697916,14.6107503 24.6784536,14.507514 24.8682605,14.3010383 C25.0580674,14.0945625 25.1529694,13.7492548 25.1529694,13.2651049 L26.9717895,13.2651049 Z" id="Combined-Shape"></path>
            </g>
        </g>
    </g>
</svg>