<?xml version="1.0" encoding="UTF-8"?>
<svg width="32px" height="32px" viewBox="0 0 32 32" version="1.1" xmlns="http://www.w3.org/2000/svg" xmlns:xlink="http://www.w3.org/1999/xlink">
    <!-- Generator: Sketch 50.2 (55047) - http://www.bohemiancoding.com/sketch -->
    <title>door-opened-outline</title>
    <desc>Created with Sketch.</desc>
    <defs></defs>
    <g id="Page-2" stroke="none" stroke-width="1" fill="none" fill-rule="evenodd">
        <g id="04-copy-2" transform="translate(-538.000000, -2451.000000)" fill="#333333" fill-rule="nonzero">
            <g id="door-opened-outline" transform="translate(542.000000, 2451.000000)">
                <path d="M4.32866237,28.9992487 L1,28.9992487 C0.44771525,28.9992487 0,28.5515451 0,27.9992746 C0,27.4470042 0.44771525,26.9993005 1,26.9993005 L2,26.9993005 L2,1.99994819 C2,0.895407303 2.8954305,2.02900869e-16 4,0 L20,0 C21.1045695,-2.02900869e-16 22,0.895407303 22,1.99994819 L22,26.9993005 L23,26.9993005 C23.5522847,26.9993005 24,27.4470042 24,27.9992746 C24,28.5515451 23.5522847,28.9992487 23,28.9992487 L17,28.9992487 L17,31.0000259 C17,31.5522963 16.5522847,32 16,32 C15.9151091,32 15.8305637,31.9891908 15.7484036,31.9678331 L4.32866237,28.9992487 Z M5.81757931,1.99994819 L15.5031929,4.51774262 C16.3846642,4.74688284 17,5.54261182 17,6.45335695 L17,26.9993005 L20,26.9993005 L20,1.99994819 L5.81757931,1.99994819 Z M15,6.45335695 L4,3.59388515 L4,26.847392 L15,29.7068638 L15,6.45335695 Z M12,14.9996114 C12.5522847,14.9996114 13,15.4473151 13,15.9995855 L13,19.9994819 C13,20.5517523 12.5522847,20.999456 12,20.999456 C11.4477153,20.999456 11,20.5517523 11,19.9994819 L11,15.9995855 C11,15.4473151 11.4477153,14.9996114 12,14.9996114 Z" id="ic_ol_door_opened_32"></path>
            </g>
        </g>
    </g>
</svg>