<?xml version="1.0" encoding="UTF-8"?>
<svg width="32px" height="32px" viewBox="0 0 32 32" version="1.1" xmlns="http://www.w3.org/2000/svg" xmlns:xlink="http://www.w3.org/1999/xlink">
    <!-- Generator: Sketch 50.2 (55047) - http://www.bohemiancoding.com/sketch -->
    <title>icon-file-outline</title>
    <desc>Created with Sketch.</desc>
    <defs></defs>
    <g id="Page-2" stroke="none" stroke-width="1" fill="none" fill-rule="evenodd">
        <g id="04-copy-2" transform="translate(-773.000000, -2451.000000)" fill="#333333">
            <g id="icon-file-32-outline" transform="translate(773.000000, 2455.000000)">
                <path d="M30,0 C31.104,0 32,0.896 32,2 L32,24 L0,24 L0,0 L30,0 Z M2,22 L30,22 L30,2 L2,2 L2,22 Z M9,13 L6,13 L6,16 L4,16 L4,8 L10,8 L10,10 L6,10 L6,11 L9,11 L9,13 Z M14,16 L12,16 L12,8 L14,8 L14,16 Z M18,14 L21,14 L21,16 L16,16 L16,8 L18,8 L18,14 Z M27,13 L24.7714885,13 L24.7714885,14 L27.9947589,14 L27.9947589,16 L23,16 L23,8 L28,8 L28,10 L24.7714885,10 L24.7714885,11 L27,11 L27,13 Z" id="Combined-Shape"></path>
            </g>
        </g>
    </g>
</svg>