<?xml version="1.0" encoding="UTF-8"?>
<svg width="32px" height="32px" viewBox="0 0 32 32" version="1.1" xmlns="http://www.w3.org/2000/svg" xmlns:xlink="http://www.w3.org/1999/xlink">
    <!-- Generator: Sketch 50.2 (55047) - http://www.bohemiancoding.com/sketch -->
    <title>news-outline</title>
    <desc>Created with Sketch.</desc>
    <defs></defs>
    <g id="Page-2" stroke="none" stroke-width="1" fill="none" fill-rule="evenodd">
        <g id="04-copy-2" transform="translate(-1187.000000, -2536.000000)" fill="#333333">
            <g id="news-outline" transform="translate(1190.000000, 2536.000000)">
                <path d="M23.914,0.0152565657 C25.066,0.0152565657 26,0.969256566 26,2.14725657 L26,29.8812566 C26,31.0592566 25.066,32.0152566 23.914,32.0152566 L2.086,32.0152566 C0.934,32.0152566 -1.77635684e-15,31.0592566 -1.77635684e-15,29.8812566 L-1.77635684e-15,2.14725657 C-1.77635684e-15,0.969256566 0.934,0.0152565657 2.086,0.0152565657 L23.914,0.0152565657 Z M24,29.8812566 L24,2.14725657 C24,2.06125657 23.944,2.01525657 23.914,2.01525657 L2.086,2.01525657 C2.056,2.01525657 2,2.06125657 2,2.14725657 L2,29.8812566 C2,29.9692566 2.056,30.0152566 2.086,30.0152566 L23.914,30.0152566 C23.944,30.0152566 24,29.9692566 24,29.8812566 Z M5,14.0146566 L5,12.0146566 L21,12.0146566 L21,14.0146566 L5,14.0146566 Z M5,20.0146566 L5,18.0146566 L21,18.0146566 L21,20.0146566 L5,20.0146566 Z M5,8.01465657 L5,6.01465657 L13,6.01465657 L13,8.01465657 L5,8.01465657 Z" id="Combined-Shape"></path>
            </g>
        </g>
    </g>
</svg>