<?xml version="1.0" encoding="UTF-8"?>
<svg width="32px" height="32px" viewBox="0 0 32 32" version="1.1" xmlns="http://www.w3.org/2000/svg" xmlns:xlink="http://www.w3.org/1999/xlink">
    <!-- Generator: Sketch 50.2 (55047) - http://www.bohemiancoding.com/sketch -->
    <title>pdf-outline</title>
    <desc>Created with Sketch.</desc>
    <defs></defs>
    <g id="Page-2" stroke="none" stroke-width="1" fill="none" fill-rule="evenodd">
        <g id="04-copy-2" transform="translate(-86.000000, -2613.000000)" fill="#333333">
            <g id="pdf-outline" transform="translate(86.000000, 2617.000000)">
                <path d="M30,0 C31.104,0 32,0.896 32,2 L32,24 L0,24 L0,0 L30,0 Z M2,22 L30,22 L30,2 L2,2 L2,22 Z M7.86895217,13.2582418 L7.86895217,16 L6,16 L6,8 L9.07437103,8 C10.0291265,8 10.7866528,8.24175582 11.3469726,8.72527473 C11.9072925,9.20879363 12.1874482,9.84431841 12.1874482,10.6318681 C12.1874482,11.4194179 11.9072925,12.0540269 11.3469726,12.5357143 C10.7866528,13.0174017 10.0291265,13.2582418 9.07437103,13.2582418 L7.86895217,13.2582418 Z M7.86895217,11.8296703 L9.07437103,11.8296703 C9.47986563,11.8296703 9.78951142,11.7188656 10.0033177,11.4972527 C10.2171239,11.2756399 10.3240254,10.9908442 10.3240254,10.6428571 C10.3240254,10.287544 10.2180455,9.99633813 10.0060824,9.76923077 C9.7941193,9.54212341 9.48355195,9.42857143 9.07437103,9.42857143 L7.86895217,9.42857143 L7.86895217,11.8296703 Z M13.2214542,16 L13.2214542,8 L16.1686481,8 C17.1160309,8 17.9085767,8.30677349 18.5463091,8.92032967 C19.1840415,9.53388585 19.502903,10.320508 19.502903,11.2802198 L19.502903,12.7197802 C19.502903,13.683155 19.1840415,14.4706929 18.5463091,15.0824176 C17.9085767,15.6941423 17.1160309,16 16.1686481,16 L13.2214542,16 Z M15.0904064,9.42857143 L15.0904064,14.5714286 L16.1686481,14.5714286 C16.5925742,14.5714286 16.9418473,14.3992691 17.2164777,14.0549451 C17.4911082,13.710621 17.6284213,13.2655705 17.6284213,12.7197802 L17.6284213,11.2692308 C17.6284213,10.7307665 17.4911082,10.289379 17.2164777,9.94505495 C16.9418473,9.60073088 16.5925742,9.42857143 16.1686481,9.42857143 L15.0904064,9.42857143 Z M25.4359967,12.7802198 L22.4888029,12.7802198 L22.4888029,16 L20.6198507,16 L20.6198507,8 L26,8 L26,9.42857143 L22.4888029,9.42857143 L22.4888029,11.3516484 L25.4359967,11.3516484 L25.4359967,12.7802198 Z" id="Combined-Shape"></path>
            </g>
        </g>
    </g>
</svg>