<?xml version="1.0" encoding="UTF-8"?>
<svg width="32px" height="32px" viewBox="0 0 32 32" version="1.1" xmlns="http://www.w3.org/2000/svg" xmlns:xlink="http://www.w3.org/1999/xlink">
    <!-- Generator: Sketch 50.2 (55047) - http://www.bohemiancoding.com/sketch -->
    <title>ppt-outline</title>
    <desc>Created with Sketch.</desc>
    <defs></defs>
    <g id="Page-2" stroke="none" stroke-width="1" fill="none" fill-rule="evenodd">
        <g id="04-copy-2" transform="translate(-206.000000, -2613.000000)" fill="#333333">
            <g id="ppt-outline" transform="translate(206.000000, 2617.000000)">
                <path d="M30,0 C31.104,0 32,0.896 32,2 L32,24 L0,24 L0,0 L30,0 Z M2,22 L30,22 L30,2 L2,2 L2,22 Z M7.86482759,13.2582418 L7.86482759,16 L6,16 L6,8 L9.06758621,8 C10.0202346,8 10.7760892,8.24175582 11.3351724,8.72527473 C11.8942557,9.20879363 12.1737931,9.84431841 12.1737931,10.6318681 C12.1737931,11.4194179 11.8942557,12.0540269 11.3351724,12.5357143 C10.7760892,13.0174017 10.0202346,13.2582418 9.06758621,13.2582418 L7.86482759,13.2582418 Z M7.86482759,11.8296703 L9.06758621,11.8296703 C9.47218593,11.8296703 9.78114836,11.7188656 9.99448276,11.4972527 C10.2078172,11.2756399 10.3144828,10.9908442 10.3144828,10.6428571 C10.3144828,10.287544 10.2087367,9.99633813 9.99724138,9.76923077 C9.78574607,9.54212341 9.47586411,9.42857143 9.06758621,9.42857143 L7.86482759,9.42857143 L7.86482759,11.8296703 Z M15.0703448,13.2582418 L15.0703448,16 L13.2055172,16 L13.2055172,8 L16.2731034,8 C17.2257519,8 17.9816064,8.24175582 18.5406897,8.72527473 C19.0997729,9.20879363 19.3793103,9.84431841 19.3793103,10.6318681 C19.3793103,11.4194179 19.0997729,12.0540269 18.5406897,12.5357143 C17.9816064,13.0174017 17.2257519,13.2582418 16.2731034,13.2582418 L15.0703448,13.2582418 Z M15.0703448,11.8296703 L16.2731034,11.8296703 C16.6777032,11.8296703 16.9866656,11.7188656 17.2,11.4972527 C17.4133344,11.2756399 17.52,10.9908442 17.52,10.6428571 C17.52,10.287544 17.4142539,9.99633813 17.2027586,9.76923077 C16.9912633,9.54212341 16.6813814,9.42857143 16.2731034,9.42857143 L15.0703448,9.42857143 L15.0703448,11.8296703 Z M26,9.42857143 L23.8758621,9.42857143 L23.8758621,16 L22.0110345,16 L22.0110345,9.42857143 L19.9255172,9.42857143 L19.9255172,8 L26,8 L26,9.42857143 Z" id="Combined-Shape"></path>
            </g>
        </g>
    </g>
</svg>