<?xml version="1.0" encoding="UTF-8"?>
<svg width="32px" height="32px" viewBox="0 0 32 32" version="1.1" xmlns="http://www.w3.org/2000/svg" xmlns:xlink="http://www.w3.org/1999/xlink">
    <!-- Generator: Sketch 50.2 (55047) - http://www.bohemiancoding.com/sketch -->
    <title>spiderchart-outline</title>
    <desc>Created with Sketch.</desc>
    <defs></defs>
    <g id="Page-2" stroke="none" stroke-width="1" fill="none" fill-rule="evenodd">
        <g id="04-copy-2" transform="translate(-451.000000, -2615.000000)" fill="#333333" fill-rule="nonzero">
            <path d="M467.016892,2616.5 L482.233796,2627.55573 L476.421456,2645.44427 L457.612328,2645.44427 L451.799988,2627.55573 L467.016892,2616.5 Z M454.151129,2628.31966 L459.065413,2643.44427 L474.968371,2643.44427 L479.882655,2628.31966 L467.016892,2618.97214 L454.151129,2628.31966 Z M467.016892,2622.5 L476.527457,2629.40983 L472.894745,2640.59017 L461.13904,2640.59017 L457.506327,2629.40983 L467.016892,2622.5 Z M459.857468,2630.17376 L462.592125,2638.59017 L471.44166,2638.59017 L474.176316,2630.17376 L467.016892,2624.97214 L459.857468,2630.17376 Z M467.016892,2627.5 L471.772175,2630.95492 L469.955818,2636.54508 L464.077966,2636.54508 L462.261609,2630.95492 L467.016892,2627.5 Z M464.61275,2631.71885 L465.531051,2634.54508 L468.502733,2634.54508 L469.421034,2631.71885 L467.016892,2629.97214 L464.61275,2631.71885 Z" id="spiderchart-outline"></path>
        </g>
    </g>
</svg>