<?xml version="1.0" encoding="UTF-8"?>
<svg width="32px" height="32px" viewBox="0 0 32 32" version="1.1" xmlns="http://www.w3.org/2000/svg" xmlns:xlink="http://www.w3.org/1999/xlink">
    <!-- Generator: Sketch 50.2 (55047) - http://www.bohemiancoding.com/sketch -->
    <title>xls-outline</title>
    <desc>Created with Sketch.</desc>
    <defs></defs>
    <g id="Page-2" stroke="none" stroke-width="1" fill="none" fill-rule="evenodd">
        <g id="04-copy-2" transform="translate(-1082.000000, -2615.000000)" fill="#333333">
            <g id="xls-outline" transform="translate(1082.000000, 2619.000000)">
                <path d="M30,0 C31.104,0 32,0.896 32,2 L32,24 L0,24 L0,0 L30,0 Z M8.17792422,10.4178905 L6.62273476,7.14018692 L4.07248764,7.14018692 L6.82042834,11.9599466 L4,16.8598131 L6.57001647,16.8598131 L8.20428336,13.5153538 L9.83855025,16.8598131 L12.5403624,16.8598131 L9.5815486,11.9599466 L12.3294893,7.14018692 L9.75947282,7.14018692 L8.17792422,10.4178905 Z M15.5123558,15.1241656 L15.5123558,7.14018692 L13.2850082,7.14018692 L13.2850082,16.8598131 L19.630972,16.8598131 L19.630972,15.1241656 L15.5123558,15.1241656 Z M25.7726524,14.2830441 C25.7726524,14.5856713 25.6584306,14.8304397 25.4299835,15.0173565 C25.2015365,15.2042733 24.8544779,15.2977303 24.3887974,15.2977303 C23.8220729,15.2977303 23.4014292,15.1786839 23.1268534,14.9405874 C22.8522776,14.702491 22.7149918,14.3008484 22.7149918,13.7356475 L20.5469522,13.7356475 L20.5337727,13.7757009 C20.5118066,14.8883011 20.877536,15.7038247 21.630972,16.2222964 C22.3844079,16.7407681 23.3036739,17 24.3887974,17 C25.4783141,17 26.3525502,16.7585694 27.0115321,16.2757009 C27.670514,15.7928325 28,15.1241698 28,14.2696929 C28,13.4330176 27.7144455,12.7743682 27.1433278,12.293725 C26.5722102,11.8130817 25.7309226,11.4058762 24.6194399,11.0720961 C23.9648512,10.8139729 23.5178485,10.5992443 23.2784185,10.4279039 C23.0389884,10.2565635 22.9192751,10.0284838 22.9192751,9.74365821 C22.9192751,9.44993178 23.0356935,9.20293825 23.2685338,9.00267023 C23.501374,8.8024022 23.8198772,8.70226969 24.2240527,8.70226969 C24.7204857,8.70226969 25.0917066,8.80573995 25.3377265,9.01268358 C25.5837464,9.2196272 25.7067545,9.55228965 25.7067545,10.0106809 L27.8682043,10.0106809 L27.8813839,9.9706275 C27.9033499,9.02714259 27.5804536,8.29617527 26.9126853,7.7777036 C26.244917,7.25923194 25.3640911,7 24.2701812,7 C23.2333831,7 22.378916,7.25144386 21.7067545,7.75433912 C21.034593,8.25723438 20.6985173,8.91588378 20.6985173,9.73030708 C20.6985173,10.562532 20.9873667,11.2000423 21.5650741,11.6428571 C22.1427816,12.085672 23.0269023,12.5028908 24.2174629,12.894526 C24.8061534,13.1036949 25.2125195,13.3006221 25.4365733,13.4853138 C25.6606271,13.6700054 25.7726524,13.9359128 25.7726524,14.2830441 Z" id="Combined-Shape"></path>
            </g>
        </g>
    </g>
</svg>