<?xml version="1.0" encoding="UTF-8"?>
<svg width="32px" height="32px" viewBox="0 0 32 32" version="1.1" xmlns="http://www.w3.org/2000/svg" xmlns:xlink="http://www.w3.org/1999/xlink">
    <!-- Generator: Sketch 50.2 (55047) - http://www.bohemiancoding.com/sketch -->
    <title>ic_hb_half_lft_32</title>
    <desc>Created with Sketch.</desc>
    <defs></defs>
    <g id="Page-1" stroke="none" stroke-width="1" fill="none" fill-rule="evenodd">
        <g id="ic_hb_half_lft_32" transform="translate(-0.200000, 0.000000)" fill="#333333" fill-rule="nonzero">
            <path d="M16.2,30 C23.9319865,30 30.2,23.7319865 30.2,16 C30.2,8.2680135 23.9319865,2 16.2,2 C8.4680135,2 2.2,8.2680135 2.2,16 C2.2,23.7319865 8.4680135,30 16.2,30 Z M16.2,32 C7.363444,32 0.2,24.836556 0.2,16 C0.2,7.163444 7.363444,0 16.2,0 C25.036556,0 32.2,7.163444 32.2,16 C32.2,24.836556 25.036556,32 16.2,32 Z M16.2,0 L16.2,32 C11.9565356,32 7.88687252,30.3142903 5.2,27 C1.88570822,24.3131254 0.199999151,20.2434624 0.2,16 C0.2,7.16344329 7.363444,0 16.2,0 Z"></path>
        </g>
    </g>
</svg>